<?xml version="1.0" encoding="UTF-8"?>
<svg width="19px" height="19px" viewBox="0 0 19 19" version="1.1" xmlns="http://www.w3.org/2000/svg" xmlns:xlink="http://www.w3.org/1999/xlink">
    <!-- Generator: Sketch 46.2 (44496) - http://www.bohemiancoding.com/sketch -->
    <title>Shape</title>
    <desc>Created with Sketch.</desc>
    <defs></defs>
    <g id="portfolio-divs" stroke="none" stroke-width="1" fill="none" fill-rule="evenodd">
        <g id="home-annotations" transform="translate(-2298.000000, -229.000000)" fill-rule="nonzero" fill="#FFFFFF">
            <g id="Linkedin" transform="translate(2298.698591, 229.868642)">
                <g id="linkedin">
                    <g id="providers-list">
                        <g id="linkedin">
                            <path d="M0.371772665,6.03999116 L4.09371242,6.03999116 L4.09371242,18.0153313 L0.371772665,18.0153313 L0.371772665,6.03999116 Z M2.2333227,0.0871308518 C3.42343064,0.0871308518 4.39036916,1.05406937 4.39036916,2.2441773 C4.39036916,3.43544556 3.42343064,4.40277086 2.2333227,4.40277086 C1.45266945,4.41755222 0.724906549,4.00953749 0.330250495,3.33582792 C-0.0644055589,2.66211835 -0.0644055589,1.82778336 0.330250495,1.15407379 C0.724906549,0.480364219 1.45266945,0.0723494899 2.2333227,0.0871308518 Z M6.42828878,6.03960438 L9.9982258,6.03960438 L9.9982258,7.67605114 L10.0477331,7.67605114 C10.5447395,6.73463979 11.7588275,5.74217409 13.5693231,5.74217409 C17.3380627,5.74217409 18.0342585,8.22256479 18.0342585,11.4471114 L18.0342585,18.0153313 L14.3146394,18.0153313 L14.3146394,12.191654 C14.3146394,10.8031303 14.2891122,9.0166147 12.3807623,9.0166147 C10.4441778,9.0166147 10.1467476,10.5292933 10.1467476,12.0914792 L10.1467476,18.0153313 L6.42790201,18.0153313 L6.42790201,6.03999116 L6.42828878,6.03960438 Z" id="Shape"></path>
                        </g>
                    </g>
                </g>
            </g>
        </g>
    </g>
</svg>