<?xml version="1.0" encoding="UTF-8"?>
<svg width="33px" height="19px" viewBox="0 0 33 19" version="1.1" xmlns="http://www.w3.org/2000/svg" xmlns:xlink="http://www.w3.org/1999/xlink">
    <!-- Generator: Sketch 47 (45396) - http://www.bohemiancoding.com/sketch -->
    <title>Menu</title>
    <desc>Created with Sketch.</desc>
    <defs></defs>
    <g id="Page-1" stroke="none" stroke-width="1" fill="none" fill-rule="evenodd">
        <g id="Artboard" fill-rule="nonzero" fill="#333333">
            <g id="Menu">
                <path d="M1.61289063,4 L30.6449219,4 C31.5356968,4 32.2578125,3.1045695 32.2578125,2 C32.2578125,0.8954305 31.5356968,0 30.6449219,0 L1.61289063,0 C0.72211573,0 0,0.8954305 0,2 C0,3.1045695 0.72211573,4 1.61289063,4 Z M30.6449219,7.5 L1.61289063,7.5 C0.72211573,7.5 0,8.3954305 0,9.5 C0,10.6045695 0.72211573,11.5 1.61289063,11.5 L30.6449219,11.5 C31.5356968,11.5 32.2578125,10.6045695 32.2578125,9.5 C32.2578125,8.3954305 31.5356968,7.5 30.6449219,7.5 Z M30.6449219,15 L1.61289063,15 C0.72211573,15 0,15.8954305 0,17 C0,18.1045695 0.72211573,19 1.61289063,19 L30.6449219,19 C31.5356968,19 32.2578125,18.1045695 32.2578125,17 C32.2578125,15.8954305 31.5356968,15 30.6449219,15 Z" id="Shape"></path>
            </g>
        </g>
    </g>
</svg>